# xmcd CD database file
#
# Track frame offsets:
#	150
#	25655
#	58805
#	84927
#	117517
#	158030
#	181857
#	220440
#	248200
#
# Disc length: 3703 seconds
#
# Revision: 0
# Processed by: cddbd v1.5.2PL0 Copyright (c) Steve Scherf et al.
# Submitted via: CDex 1.70beta2
#
DISCID=730e7509
DTITLE=Bugiana Leaders Club - BUGIANA Vol 1
DYEAR=1991
DGENRE=Jazz
TTITLE0=Bouncing With Bud
TTITLE1=How Deep Is The Ocean
TTITLE2=You Stepped Out Of A Dream
TTITLE3=Angel Eyes
TTITLE4=And Then Again
TTITLE5=Tear Of Giraff
TTITLE6=Clypso
TTITLE7=The Only One
TTITLE8=Love Of Spring
EXTD=YEAR: 1991
EXTT0=
EXTT1=
EXTT2=
EXTT3=
EXTT4=
EXTT5=
EXTT6=
EXTT7=
EXTT8=
PLAYORDER=
